<svg width="822" height="146" viewBox="0 0 822 146" fill="none" xmlns="http://www.w3.org/2000/svg">
<path d="M49.7045 3.45454H63.0909V82.4773C63.0909 89.5303 61.7955 95.5218 59.2045 100.452C56.6136 105.382 52.9612 109.124 48.2472 111.679C43.5331 114.234 37.9735 115.511 31.5682 115.511C25.5227 115.511 20.143 114.414 15.429 112.219C10.715 109.988 7.00852 106.821 4.30966 102.719C1.6108 98.6165 0.261364 93.7405 0.261364 88.0909H13.4318C13.4318 91.2216 14.2055 93.9564 15.7528 96.2955C17.3362 98.5985 19.4953 100.398 22.2301 101.693C24.965 102.989 28.0777 103.636 31.5682 103.636C35.4186 103.636 38.6932 102.827 41.392 101.207C44.0909 99.5881 46.142 97.2131 47.5455 94.0824C48.9849 90.9157 49.7045 87.0473 49.7045 82.4773V3.45454ZM123.228 115.943C117.974 115.943 113.206 114.954 108.924 112.974C104.642 110.959 101.241 108.062 98.7224 104.284C96.2034 100.47 94.944 95.8636 94.944 90.4659C94.944 85.7159 95.8796 81.8655 97.7508 78.9148C99.622 75.928 102.123 73.589 105.254 71.8977C108.384 70.2064 111.839 68.947 115.617 68.1193C119.432 67.2557 123.264 66.572 127.114 66.0682C132.152 65.4205 136.237 64.9347 139.367 64.6108C142.534 64.2509 144.837 63.6572 146.276 62.8295C147.752 62.0019 148.489 60.5625 148.489 58.5114V58.0795C148.489 52.7538 147.032 48.6155 144.117 45.6648C141.238 42.714 136.866 41.2386 131.001 41.2386C124.919 41.2386 120.151 42.5701 116.697 45.233C113.242 47.8958 110.813 50.7386 109.41 53.7614L97.319 49.4432C99.4781 44.4053 102.357 40.483 105.955 37.6761C109.59 34.8333 113.548 32.8542 117.83 31.7386C122.149 30.5871 126.395 30.0114 130.569 30.0114C133.232 30.0114 136.291 30.3352 139.745 30.9829C143.236 31.5947 146.6 32.8722 149.839 34.8153C153.113 36.7585 155.83 39.6913 157.989 43.6136C160.149 47.536 161.228 52.7898 161.228 59.375V114H148.489V102.773H147.842C146.978 104.572 145.539 106.497 143.524 108.548C141.508 110.599 138.828 112.345 135.481 113.784C132.134 115.223 128.05 115.943 123.228 115.943ZM125.171 104.5C130.209 104.5 134.455 103.51 137.91 101.531C141.4 99.5521 144.027 96.9972 145.791 93.8665C147.59 90.7358 148.489 87.4432 148.489 83.9886V72.3295C147.95 72.9773 146.762 73.571 144.927 74.1108C143.128 74.6146 141.041 75.0644 138.666 75.4602C136.327 75.8201 134.042 76.1439 131.81 76.4318C129.615 76.6837 127.834 76.8996 126.467 77.0795C123.156 77.5114 120.061 78.2131 117.183 79.1847C114.34 80.1203 112.037 81.5417 110.274 83.4489C108.546 85.3201 107.683 87.875 107.683 91.1136C107.683 95.5398 109.32 98.8864 112.595 101.153C115.905 103.384 120.097 104.5 125.171 104.5ZM259.945 31.0909L229.286 114H216.332L185.673 31.0909H199.491L222.377 97.1591H223.241L246.127 31.0909H259.945ZM309.274 115.943C304.02 115.943 299.252 114.954 294.97 112.974C290.688 110.959 287.287 108.062 284.768 104.284C282.249 100.47 280.99 95.8636 280.99 90.4659C280.99 85.7159 281.925 81.8655 283.796 78.9148C285.668 75.928 288.169 73.589 291.299 71.8977C294.43 70.2064 297.885 68.947 301.663 68.1193C305.477 67.2557 309.31 66.572 313.16 66.0682C318.198 65.4205 322.282 64.9347 325.413 64.6108C328.58 64.2509 330.883 63.6572 332.322 62.8295C333.797 62.0019 334.535 60.5625 334.535 58.5114V58.0795C334.535 52.7538 333.078 48.6155 330.163 45.6648C327.284 42.714 322.912 41.2386 317.046 41.2386C310.965 41.2386 306.197 42.5701 302.742 45.233C299.288 47.8958 296.859 50.7386 295.456 53.7614L283.365 49.4432C285.524 44.4053 288.402 40.483 292.001 37.6761C295.635 34.8333 299.594 32.8542 303.876 31.7386C308.194 30.5871 312.44 30.0114 316.615 30.0114C319.277 30.0114 322.336 30.3352 325.791 30.9829C329.281 31.5947 332.646 32.8722 335.885 34.8153C339.159 36.7585 341.876 39.6913 344.035 43.6136C346.194 47.536 347.274 52.7898 347.274 59.375V114H334.535V102.773H333.887C333.024 104.572 331.584 106.497 329.569 108.548C327.554 110.599 324.873 112.345 321.527 113.784C318.18 115.223 314.096 115.943 309.274 115.943ZM311.217 104.5C316.255 104.5 320.501 103.51 323.956 101.531C327.446 99.5521 330.073 96.9972 331.836 93.8665C333.635 90.7358 334.535 87.4432 334.535 83.9886V72.3295C333.995 72.9773 332.808 73.571 330.973 74.1108C329.173 74.6146 327.086 75.0644 324.711 75.4602C322.372 75.8201 320.087 76.1439 317.856 76.4318C315.661 76.6837 313.88 76.8996 312.512 77.0795C309.202 77.5114 306.107 78.2131 303.228 79.1847C300.385 80.1203 298.082 81.5417 296.319 83.4489C294.592 85.3201 293.728 87.875 293.728 91.1136C293.728 95.5398 295.366 98.8864 298.64 101.153C301.951 103.384 306.143 104.5 311.217 104.5ZM439.892 49.6591L428.448 52.8977C427.729 50.9905 426.667 49.1373 425.264 47.3381C423.896 45.5028 422.025 43.9915 419.65 42.804C417.275 41.6165 414.234 41.0227 410.528 41.0227C405.454 41.0227 401.226 42.1922 397.843 44.5312C394.497 46.8343 392.823 49.767 392.823 53.3295C392.823 56.4962 393.975 58.9972 396.278 60.8324C398.581 62.6676 402.18 64.197 407.073 65.4205L419.38 68.4432C426.793 70.2424 432.317 72.9953 435.951 76.7017C439.586 80.3722 441.403 85.1042 441.403 90.8977C441.403 95.6477 440.036 99.8939 437.301 103.636C434.602 107.379 430.823 110.33 425.966 112.489C421.108 114.648 415.458 115.727 409.017 115.727C400.56 115.727 393.561 113.892 388.02 110.222C382.478 106.551 378.969 101.189 377.494 94.1364L389.585 91.1136C390.736 95.5758 392.913 98.9223 396.116 101.153C399.355 103.384 403.583 104.5 408.801 104.5C414.738 104.5 419.452 103.241 422.943 100.722C426.469 98.1667 428.233 95.108 428.233 91.5455C428.233 88.6667 427.225 86.2557 425.21 84.3125C423.195 82.3333 420.1 80.858 415.926 79.8864L402.108 76.6477C394.515 74.8485 388.937 72.0597 385.375 68.2812C381.848 64.4669 380.085 59.6989 380.085 53.9773C380.085 49.2992 381.398 45.161 384.025 41.5625C386.688 37.964 390.305 35.1392 394.875 33.0881C399.481 31.0369 404.698 30.0114 410.528 30.0114C418.733 30.0114 425.174 31.8106 429.852 35.4091C434.566 39.0076 437.913 43.7576 439.892 49.6591ZM504.9 115.727C497.128 115.727 490.434 113.892 484.821 110.222C479.207 106.551 474.889 101.495 471.866 95.054C468.843 88.6127 467.332 81.2538 467.332 72.9773C467.332 64.5568 468.879 57.1259 471.974 50.6847C475.105 44.2074 479.459 39.1515 485.037 35.517C490.65 31.8466 497.2 30.0114 504.684 30.0114C510.514 30.0114 515.768 31.0909 520.446 33.25C525.124 35.4091 528.956 38.4318 531.943 42.3182C534.93 46.2045 536.783 50.7386 537.503 55.9205H524.764C523.792 52.142 521.633 48.7955 518.287 45.8807C514.976 42.9299 510.514 41.4545 504.9 41.4545C499.934 41.4545 495.58 42.75 491.838 45.3409C488.131 47.8958 485.235 51.5123 483.147 56.1903C481.096 60.8324 480.071 66.2841 480.071 72.5455C480.071 78.9508 481.078 84.5284 483.093 89.2784C485.145 94.0284 488.023 97.7169 491.73 100.344C495.472 102.971 499.862 104.284 504.9 104.284C508.211 104.284 511.216 103.708 513.915 102.557C516.613 101.405 518.898 99.75 520.77 97.5909C522.641 95.4318 523.972 92.8409 524.764 89.8182H537.503C536.783 94.7121 535.002 99.1203 532.159 103.043C529.352 106.929 525.628 110.024 520.986 112.327C516.379 114.594 511.018 115.727 504.9 115.727ZM566.765 114V31.0909H579.072V43.6136H579.935C581.447 39.5114 584.181 36.1828 588.14 33.6278C592.098 31.0729 596.56 29.7954 601.526 29.7954C602.462 29.7954 603.631 29.8134 605.035 29.8494C606.438 29.8854 607.5 29.9394 608.219 30.0114V42.9659C607.787 42.858 606.798 42.696 605.251 42.4801C603.739 42.2282 602.138 42.1023 600.447 42.1023C596.416 42.1023 592.818 42.9479 589.651 44.6392C586.52 46.2945 584.037 48.5975 582.202 51.5483C580.403 54.4631 579.503 57.7917 579.503 61.5341V114H566.765ZM633.959 114V31.0909H646.698V114H633.959ZM640.437 17.2727C637.954 17.2727 635.813 16.4271 634.013 14.7358C632.25 13.0445 631.368 11.0114 631.368 8.63636C631.368 6.26136 632.25 4.22822 634.013 2.53693C635.813 0.845643 637.954 0 640.437 0C642.92 0 645.043 0.845643 646.806 2.53693C648.605 4.22822 649.505 6.26136 649.505 8.63636C649.505 11.0114 648.605 13.0445 646.806 14.7358C645.043 16.4271 642.92 17.2727 640.437 17.2727ZM680.67 145.091V31.0909H692.977V44.2614H694.488C695.423 42.822 696.719 40.9867 698.374 38.7557C700.066 36.4886 702.477 34.4735 705.607 32.7102C708.774 30.911 713.056 30.0114 718.454 30.0114C725.435 30.0114 731.588 31.7566 736.914 35.2472C742.24 38.7377 746.396 43.6856 749.383 50.0909C752.37 56.4962 753.863 64.053 753.863 72.7614C753.863 81.5417 752.37 89.1525 749.383 95.5938C746.396 101.999 742.258 106.965 736.968 110.491C731.678 113.982 725.579 115.727 718.67 115.727C713.344 115.727 709.08 114.846 705.877 113.082C702.674 111.283 700.209 109.25 698.482 106.983C696.755 104.68 695.423 102.773 694.488 101.261H693.408V145.091H680.67ZM693.192 72.5455C693.192 78.8068 694.11 84.3305 695.945 89.1165C697.781 93.8665 700.461 97.5909 703.988 100.29C707.514 102.953 711.833 104.284 716.942 104.284C722.268 104.284 726.712 102.881 730.275 100.074C733.873 97.2311 736.572 93.4167 738.371 88.6307C740.207 83.8087 741.124 78.447 741.124 72.5455C741.124 66.7159 740.225 61.4621 738.425 56.7841C736.662 52.0701 733.981 48.3456 730.383 45.6108C726.82 42.84 722.34 41.4545 716.942 41.4545C711.761 41.4545 707.406 42.768 703.88 45.3949C700.353 47.9858 697.691 51.6203 695.891 56.2983C694.092 60.9403 693.192 66.3561 693.192 72.5455ZM819.992 31.0909V41.8864H777.026V31.0909H819.992ZM789.548 11.2273H802.287V90.25C802.287 93.8485 802.809 96.5473 803.852 98.3466C804.932 100.11 806.299 101.297 807.955 101.909C809.646 102.485 811.427 102.773 813.298 102.773C814.702 102.773 815.853 102.701 816.753 102.557C817.653 102.377 818.372 102.233 818.912 102.125L821.503 113.568C820.639 113.892 819.434 114.216 817.886 114.54C816.339 114.9 814.378 115.08 812.003 115.08C808.404 115.08 804.878 114.306 801.423 112.759C798.005 111.211 795.162 108.854 792.895 105.688C790.664 102.521 789.548 98.5265 789.548 93.7045V11.2273Z" fill="black"/>
</svg>
