<svg width="726" height="146" viewBox="0 0 726 146" fill="none" xmlns="http://www.w3.org/2000/svg">
<path d="M49.7045 3.45454H63.0909V82.4773C63.0909 89.5303 61.7955 95.5218 59.2045 100.452C56.6136 105.382 52.9612 109.124 48.2472 111.679C43.5331 114.234 37.9735 115.511 31.5682 115.511C25.5227 115.511 20.143 114.414 15.429 112.219C10.715 109.988 7.00852 106.821 4.30966 102.719C1.6108 98.6165 0.261364 93.7405 0.261364 88.0909H13.4318C13.4318 91.2216 14.2055 93.9564 15.7528 96.2955C17.3362 98.5985 19.4953 100.398 22.2301 101.693C24.965 102.989 28.0777 103.636 31.5682 103.636C35.4186 103.636 38.6932 102.827 41.392 101.207C44.0909 99.5881 46.142 97.2131 47.5455 94.0824C48.9849 90.9157 49.7045 87.0473 49.7045 82.4773V3.45454ZM112.588 115.943C107.334 115.943 102.566 114.954 98.2841 112.974C94.0019 110.959 90.6013 108.062 88.0824 104.284C85.5634 100.47 84.304 95.8636 84.304 90.4659C84.304 85.7159 85.2396 81.8655 87.1108 78.9148C88.982 75.928 91.483 73.589 94.6136 71.8977C97.7443 70.2064 101.199 68.947 104.977 68.1193C108.792 67.2557 112.624 66.572 116.474 66.0682C121.512 65.4205 125.597 64.9347 128.727 64.6108C131.894 64.2509 134.197 63.6572 135.636 62.8295C137.112 62.0019 137.849 60.5625 137.849 58.5114V58.0795C137.849 52.7538 136.392 48.6155 133.477 45.6648C130.598 42.714 126.226 41.2386 120.361 41.2386C114.279 41.2386 109.511 42.5701 106.057 45.233C102.602 47.8958 100.173 50.7386 98.7699 53.7614L86.679 49.4432C88.8381 44.4053 91.7169 40.483 95.3153 37.6761C98.9498 34.8333 102.908 32.8542 107.19 31.7386C111.509 30.5871 115.755 30.0114 119.929 30.0114C122.592 30.0114 125.651 30.3352 129.105 30.9829C132.596 31.5947 135.96 32.8722 139.199 34.8153C142.473 36.7585 145.19 39.6913 147.349 43.6136C149.509 47.536 150.588 52.7898 150.588 59.375V114H137.849V102.773H137.202C136.338 104.572 134.899 106.497 132.884 108.548C130.868 110.599 128.188 112.345 124.841 113.784C121.494 115.223 117.41 115.943 112.588 115.943ZM114.531 104.5C119.569 104.5 123.815 103.51 127.27 101.531C130.76 99.5521 133.387 96.9972 135.151 93.8665C136.95 90.7358 137.849 87.4432 137.849 83.9886V72.3295C137.31 72.9773 136.122 73.571 134.287 74.1108C132.488 74.6146 130.401 75.0644 128.026 75.4602C125.687 75.8201 123.402 76.1439 121.17 76.4318C118.975 76.6837 117.194 76.8996 115.827 77.0795C112.516 77.5114 109.421 78.2131 106.543 79.1847C103.7 80.1203 101.397 81.5417 99.6335 83.4489C97.9063 85.3201 97.0426 87.875 97.0426 91.1136C97.0426 95.5398 98.6799 98.8864 101.955 101.153C105.265 103.384 109.457 104.5 114.531 104.5ZM238.665 31.0909L208.006 114H195.052L164.393 31.0909H178.211L201.097 97.1591H201.961L224.847 31.0909H238.665ZM277.354 115.943C272.1 115.943 267.332 114.954 263.05 112.974C258.768 110.959 255.367 108.062 252.848 104.284C250.329 100.47 249.07 95.8636 249.07 90.4659C249.07 85.7159 250.005 81.8655 251.876 78.9148C253.748 75.928 256.249 73.589 259.379 71.8977C262.51 70.2064 265.964 68.947 269.743 68.1193C273.557 67.2557 277.39 66.572 281.24 66.0682C286.278 65.4205 290.362 64.9347 293.493 64.6108C296.66 64.2509 298.963 63.6572 300.402 62.8295C301.877 62.0019 302.615 60.5625 302.615 58.5114V58.0795C302.615 52.7538 301.158 48.6155 298.243 45.6648C295.364 42.714 290.992 41.2386 285.126 41.2386C279.045 41.2386 274.277 42.5701 270.822 45.233C267.368 47.8958 264.939 50.7386 263.536 53.7614L251.445 49.4432C253.604 44.4053 256.482 40.483 260.081 37.6761C263.715 34.8333 267.674 32.8542 271.956 31.7386C276.274 30.5871 280.52 30.0114 284.695 30.0114C287.357 30.0114 290.416 30.3352 293.871 30.9829C297.361 31.5947 300.726 32.8722 303.964 34.8153C307.239 36.7585 309.956 39.6913 312.115 43.6136C314.274 47.536 315.354 52.7898 315.354 59.375V114H302.615V102.773H301.967C301.104 104.572 299.664 106.497 297.649 108.548C295.634 110.599 292.953 112.345 289.607 113.784C286.26 115.223 282.176 115.943 277.354 115.943ZM279.297 104.5C284.335 104.5 288.581 103.51 292.036 101.531C295.526 99.5521 298.153 96.9972 299.916 93.8665C301.715 90.7358 302.615 87.4432 302.615 83.9886V72.3295C302.075 72.9773 300.888 73.571 299.053 74.1108C297.253 74.6146 295.166 75.0644 292.791 75.4602C290.452 75.8201 288.167 76.1439 285.936 76.4318C283.741 76.6837 281.96 76.8996 280.592 77.0795C277.282 77.5114 274.187 78.2131 271.308 79.1847C268.465 80.1203 266.162 81.5417 264.399 83.4489C262.672 85.3201 261.808 87.875 261.808 91.1136C261.808 95.5398 263.446 98.8864 266.72 101.153C270.031 103.384 274.223 104.5 279.297 104.5ZM397.332 49.6591L385.888 52.8977C385.169 50.9905 384.107 49.1373 382.704 47.3381C381.336 45.5028 379.465 43.9915 377.09 42.804C374.715 41.6165 371.674 41.0227 367.968 41.0227C362.894 41.0227 358.666 42.1922 355.283 44.5312C351.937 46.8343 350.263 49.767 350.263 53.3295C350.263 56.4962 351.415 58.9972 353.718 60.8324C356.021 62.6676 359.62 64.197 364.513 65.4205L376.82 68.4432C384.233 70.2424 389.757 72.9953 393.391 76.7017C397.026 80.3722 398.843 85.1042 398.843 90.8977C398.843 95.6477 397.476 99.8939 394.741 103.636C392.042 107.379 388.263 110.33 383.406 112.489C378.548 114.648 372.898 115.727 366.457 115.727C358 115.727 351.001 113.892 345.46 110.222C339.918 106.551 336.409 101.189 334.934 94.1364L347.025 91.1136C348.176 95.5758 350.353 98.9223 353.556 101.153C356.795 103.384 361.023 104.5 366.241 104.5C372.178 104.5 376.892 103.241 380.383 100.722C383.909 98.1667 385.673 95.108 385.673 91.5455C385.673 88.6667 384.665 86.2557 382.65 84.3125C380.635 82.3333 377.54 80.858 373.366 79.8864L359.548 76.6477C351.955 74.8485 346.377 72.0597 342.815 68.2812C339.288 64.4669 337.525 59.6989 337.525 53.9773C337.525 49.2992 338.838 45.161 341.465 41.5625C344.128 37.964 347.745 35.1392 352.315 33.0881C356.921 31.0369 362.138 30.0114 367.968 30.0114C376.173 30.0114 382.614 31.8106 387.292 35.4091C392.006 39.0076 395.353 43.7576 397.332 49.6591ZM451.7 115.727C443.928 115.727 437.234 113.892 431.621 110.222C426.007 106.551 421.689 101.495 418.666 95.054C415.643 88.6127 414.132 81.2538 414.132 72.9773C414.132 64.5568 415.679 57.1259 418.774 50.6847C421.905 44.2074 426.259 39.1515 431.837 35.517C437.45 31.8466 444 30.0114 451.484 30.0114C457.314 30.0114 462.568 31.0909 467.246 33.25C471.924 35.4091 475.756 38.4318 478.743 42.3182C481.73 46.2045 483.583 50.7386 484.303 55.9205H471.564C470.592 52.142 468.433 48.7955 465.087 45.8807C461.776 42.9299 457.314 41.4545 451.7 41.4545C446.734 41.4545 442.38 42.75 438.638 45.3409C434.931 47.8958 432.035 51.5123 429.947 56.1903C427.896 60.8324 426.871 66.2841 426.871 72.5455C426.871 78.9508 427.878 84.5284 429.893 89.2784C431.945 94.0284 434.823 97.7169 438.53 100.344C442.272 102.971 446.662 104.284 451.7 104.284C455.011 104.284 458.016 103.708 460.714 102.557C463.413 101.405 465.698 99.75 467.57 97.5909C469.441 95.4318 470.772 92.8409 471.564 89.8182H484.303C483.583 94.7121 481.802 99.1203 478.959 103.043C476.152 106.929 472.428 110.024 467.786 112.327C463.179 114.594 457.818 115.727 451.7 115.727ZM502.925 114V31.0909H515.232V43.6136H516.095C517.607 39.5114 520.341 36.1828 524.3 33.6278C528.258 31.0729 532.72 29.7954 537.686 29.7954C538.622 29.7954 539.791 29.8134 541.195 29.8494C542.598 29.8854 543.66 29.9394 544.379 30.0114V42.9659C543.947 42.858 542.958 42.696 541.411 42.4801C539.899 42.2282 538.298 42.1023 536.607 42.1023C532.576 42.1023 528.978 42.9479 525.811 44.6392C522.68 46.2945 520.197 48.5975 518.362 51.5483C516.563 54.4631 515.663 57.7917 515.663 61.5341V114H502.925ZM559.479 114V31.0909H572.218V114H559.479ZM565.957 17.2727C563.474 17.2727 561.333 16.4271 559.533 14.7358C557.77 13.0445 556.888 11.0114 556.888 8.63636C556.888 6.26136 557.77 4.22822 559.533 2.53693C561.333 0.845643 563.474 0 565.957 0C568.44 0 570.563 0.845643 572.326 2.53693C574.125 4.22822 575.025 6.26136 575.025 8.63636C575.025 11.0114 574.125 13.0445 572.326 14.7358C570.563 16.4271 568.44 17.2727 565.957 17.2727ZM595.55 145.091V31.0909H607.857V44.2614H609.368C610.304 42.822 611.599 40.9867 613.254 38.7557C614.946 36.4886 617.357 34.4735 620.487 32.7102C623.654 30.911 627.936 30.0114 633.334 30.0114C640.315 30.0114 646.468 31.7566 651.794 35.2472C657.12 38.7377 661.276 43.6856 664.263 50.0909C667.25 56.4962 668.743 64.053 668.743 72.7614C668.743 81.5417 667.25 89.1525 664.263 95.5938C661.276 101.999 657.138 106.965 651.848 110.491C646.558 113.982 640.459 115.727 633.55 115.727C628.224 115.727 623.96 114.846 620.757 113.082C617.554 111.283 615.089 109.25 613.362 106.983C611.635 104.68 610.304 102.773 609.368 101.261H608.288V145.091H595.55ZM608.072 72.5455C608.072 78.8068 608.99 84.3305 610.825 89.1165C612.661 93.8665 615.341 97.5909 618.868 100.29C622.394 102.953 626.713 104.284 631.822 104.284C637.148 104.284 641.592 102.881 645.155 100.074C648.753 97.2311 651.452 93.4167 653.251 88.6307C655.087 83.8087 656.004 78.447 656.004 72.5455C656.004 66.7159 655.105 61.4621 653.305 56.7841C651.542 52.0701 648.861 48.3456 645.263 45.6108C641.7 42.84 637.22 41.4545 631.822 41.4545C626.641 41.4545 622.286 42.768 618.76 45.3949C615.233 47.9858 612.571 51.6203 610.771 56.2983C608.972 60.9403 608.072 66.3561 608.072 72.5455ZM724.232 31.0909V41.8864H681.266V31.0909H724.232ZM693.788 11.2273H706.527V90.25C706.527 93.8485 707.049 96.5473 708.092 98.3466C709.172 100.11 710.539 101.297 712.195 101.909C713.886 102.485 715.667 102.773 717.538 102.773C718.942 102.773 720.093 102.701 720.993 102.557C721.893 102.377 722.612 102.233 723.152 102.125L725.743 113.568C724.879 113.892 723.674 114.216 722.126 114.54C720.579 114.9 718.618 115.08 716.243 115.08C712.644 115.08 709.118 114.306 705.663 112.759C702.245 111.211 699.402 108.854 697.135 105.688C694.904 102.521 693.788 98.5265 693.788 93.7045V11.2273Z" fill="black"/>
</svg>
